<svg width="20" height="20" viewBox="0 0 20 20" fill="none" xmlns="http://www.w3.org/2000/svg">
<path d="M17.1559 3.13414C13.3637 -0.658008 7.2155 -0.658009 3.42414 3.13422C-0.367969 6.92633 -0.36797 13.0745 3.4243 16.8659C7.2155 20.658 13.3637 20.658 17.1559 16.8658C20.948 13.0745 20.948 6.92633 17.1559 3.13414ZM16.0116 15.7214C12.8514 18.8816 7.72797 18.8816 4.56863 15.7216C1.40842 12.5621 1.40842 7.43865 4.56855 4.27851C7.72797 1.11834 12.8514 1.11834 16.0115 4.27851C19.1717 7.43869 19.1717 12.5621 16.0116 15.7214Z" fill="white"/>
<path d="M14.2952 5.99481C13.9792 5.67881 13.4668 5.67881 13.1508 5.99481L10.29 8.85564L7.42918 5.99481C7.11319 5.67881 6.60084 5.67881 6.28484 5.99481C5.96885 6.3108 5.96885 6.82315 6.28484 7.13914L9.14568 9.99997L6.28591 12.8597C5.96992 13.1757 5.96992 13.6881 6.28591 14.0041C6.6019 14.3201 7.11425 14.3201 7.43024 14.0041L10.29 11.1443L13.1506 14.0049C13.4666 14.3209 13.979 14.3209 14.2949 14.0049C14.6109 13.6889 14.6109 13.1766 14.2949 12.8606L11.4343 9.99997L14.2952 7.13914C14.6112 6.82315 14.6112 6.31083 14.2952 5.99481Z" fill="white"/>
</svg>
