<svg width="19" height="18" viewBox="0 0 19 18" fill="none" xmlns="http://www.w3.org/2000/svg">
<path d="M3.8804 14.6916H12.1656C13.9136 14.6916 15.3361 13.2693 15.3361 11.5211V3.23587C15.3361 1.48768 13.9136 0.0654297 12.1656 0.0654297H3.8804C2.13221 0.0654297 0.709961 1.48768 0.709961 3.23587V11.5211C0.709961 13.2693 2.13221 14.6916 3.8804 14.6916ZM2.43929 3.23587C2.43929 2.44129 3.08582 1.79476 3.8804 1.79476H12.1656C12.9605 1.79476 13.6068 2.44129 13.6068 3.23587V11.5211C13.6068 12.3157 12.9605 12.9622 12.1656 12.9622H3.8804C3.08582 12.9622 2.43929 12.3157 2.43929 11.5211V3.23587Z" fill="white"/>
<path d="M17.7154 6.51318C17.238 6.51318 16.8507 6.9002 16.8507 7.37785V13.6112C16.8507 15.0416 15.6871 16.2052 14.2567 16.2052H8.02336C7.54571 16.2052 7.15869 16.5922 7.15869 17.0699C7.15869 17.5475 7.54571 17.9345 8.02336 17.9345H14.2567C16.6407 17.9345 18.58 15.9952 18.58 13.6112V7.37785C18.58 6.9002 18.1927 6.51318 17.7154 6.51318Z" fill="white"/>
<path d="M5.4384 8.24491H7.15816V9.96439C7.15816 10.442 7.54518 10.8291 8.02282 10.8291C8.50047 10.8291 8.88749 10.442 8.88749 9.96439V8.24491H10.6072C11.0846 8.24491 11.4719 7.85789 11.4719 7.38024C11.4719 6.9026 11.0846 6.51558 10.6072 6.51558H8.88749V4.79582C8.88749 4.31817 8.50047 3.93115 8.02282 3.93115C7.54518 3.93115 7.15816 4.31817 7.15816 4.79582V6.51558H5.4384C4.96075 6.51558 4.57373 6.9026 4.57373 7.38024C4.57373 7.85789 4.96074 8.24491 5.4384 8.24491Z" fill="white"/>
</svg>
