<svg width="13" height="18" viewBox="0 0 13 18" fill="none" xmlns="http://www.w3.org/2000/svg">
<path d="M2.45362 15.7591C2.49161 16.5236 3.11802 17.1207 3.88491 17.1207H9.69514C10.462 17.1207 11.0885 16.5236 11.1264 15.7591L11.9634 6.13379H1.6167L2.45362 15.7591ZM8.22312 8.52225H9.1785V13.7769H8.22312V8.52225ZM6.31235 8.52225H7.26774V13.7769H6.31235V8.52225ZM4.40158 8.52225H5.35697V13.7769H4.40158V8.52225Z" fill="white"/>
<path d="M9.17854 3.26834V2.31296C9.17854 1.52279 8.53569 0.879883 7.74546 0.879883H5.83469C5.04453 0.879883 4.40162 1.52279 4.40162 2.31296V3.26834H0.580078V5.17911H13.0001V3.26834H9.17854ZM5.357 3.26834V2.31296C5.357 2.04956 5.57133 1.83527 5.83469 1.83527H7.74546C8.00889 1.83527 8.22316 2.04956 8.22316 2.31296V3.26834H5.357Z" fill="white"/>
</svg>
