<svg width="19" height="18" viewBox="0 0 19 18" fill="none" xmlns="http://www.w3.org/2000/svg">
<path d="M12.0966 17.9157H3.99189C3.13209 17.9157 2.3075 17.5741 1.69953 16.9661C1.09156 16.3582 0.75 15.5336 0.75 14.6738V6.56904C0.75 5.70924 1.09156 4.88465 1.69953 4.27668C2.3075 3.6687 3.13209 3.32715 3.99189 3.32715H12.0966C12.9564 3.32715 13.781 3.6687 14.389 4.27668C14.997 4.88465 15.3385 5.70924 15.3385 6.56904V14.6738C15.3385 15.5336 14.997 16.3582 14.389 16.9661C13.781 17.5741 12.9564 17.9157 12.0966 17.9157ZM3.99189 4.94809C3.56199 4.94809 3.1497 5.11887 2.84571 5.42286C2.54172 5.72684 2.37095 6.13914 2.37095 6.56904V14.6738C2.37095 15.1037 2.54172 15.516 2.84571 15.82C3.1497 16.1239 3.56199 16.2947 3.99189 16.2947H12.0966C12.5265 16.2947 12.9388 16.1239 13.2428 15.82C13.5468 15.516 13.7176 15.1037 13.7176 14.6738V6.56904C13.7176 6.13914 13.5468 5.72684 13.2428 5.42286C12.9388 5.11887 12.5265 4.94809 12.0966 4.94809H3.99189Z" fill="white"/>
<path d="M15.3378 14.6735V13.0525C15.7677 13.0525 16.18 12.8817 16.484 12.5778C16.788 12.2738 16.9588 11.8615 16.9588 11.4316V3.32685C16.9588 2.89695 16.788 2.48466 16.484 2.18067C16.18 1.87668 15.7677 1.70591 15.3378 1.70591H7.2331C6.8032 1.70591 6.39091 1.87668 6.08692 2.18067C5.78293 2.48466 5.61216 2.89695 5.61216 3.32685H3.99121C3.99121 2.46705 4.33277 1.64246 4.94074 1.03449C5.54871 0.426516 6.3733 0.0849609 7.2331 0.0849609H15.3378C16.1976 0.0849609 17.0222 0.426516 17.6302 1.03449C18.2382 1.64246 18.5797 2.46705 18.5797 3.32685V11.4316C18.5797 12.2914 18.2382 13.116 17.6302 13.7239C17.0222 14.3319 16.1976 14.6735 15.3378 14.6735Z" fill="white"/>
</svg>
