<svg width="26" height="26" viewBox="0 0 26 26" fill="none" xmlns="http://www.w3.org/2000/svg">
<circle cx="13" cy="13" r="12" fill="#3C4F76" stroke="white" stroke-width="2"/>
<path d="M17.5327 8.19241C16.5144 7.17414 14.8576 7.17414 13.8393 8.19241L9.42472 12.607C8.13759 13.8942 7.42871 15.6055 7.42871 17.4258C7.42871 17.9066 7.81845 18.2964 8.29925 18.2964C10.1196 18.2964 11.831 17.5875 13.1182 16.3003L17.5327 11.8858C18.5509 10.8675 18.5509 9.21068 17.5327 8.19241ZM16.3016 9.42352C16.641 9.76294 16.641 10.3152 16.3016 10.6546L15.686 11.2702L14.4549 10.0391L15.0704 9.42352C15.4099 9.0841 15.9622 9.0841 16.3016 9.42352ZM11.8871 15.0692C11.1593 15.7969 10.2493 16.2764 9.26006 16.465C9.44866 15.4758 9.92815 14.5659 10.6559 13.8381L13.2237 11.2702L14.4548 12.5013L11.8871 15.0692Z" fill="white"/>
</svg>
