<svg width="16" height="15" viewBox="0 0 16 15" fill="none" xmlns="http://www.w3.org/2000/svg">
<path fill-rule="evenodd" clip-rule="evenodd" d="M13.218 4.43042C13.218 4.01724 13.553 3.6823 13.9662 3.6823C14.3793 3.6823 14.7143 4.01724 14.7143 4.43042V11.8672C14.7143 13.5974 13.3117 15 11.5815 15H3.63275C1.90258 15 0.5 13.5974 0.5 11.8672V3.91847C0.5 2.1883 1.90258 0.785717 3.63275 0.785717H10.8334C11.2466 0.785717 11.5815 1.12066 11.5815 1.53384C11.5815 1.94701 11.2466 2.28196 10.8334 2.28196H3.63275C2.72893 2.28196 1.99624 3.01465 1.99624 3.91847V11.8672C1.99624 12.7711 2.72893 13.5038 3.63275 13.5038H11.5815C12.4854 13.5038 13.218 12.7711 13.218 11.8672V4.43042ZM13.8782 0.232212C14.1631 -0.0670027 14.6367 -0.0785832 14.9359 0.206346C15.2351 0.491275 15.2467 0.964817 14.9617 1.26403L7.79887 8.78603C7.51395 9.08524 7.0404 9.09682 6.74119 8.81189C6.44198 8.52696 6.43039 8.05342 6.71532 7.7542L13.8782 0.232212Z" fill="#3C4F76"/>
</svg>
