<svg width="16" height="16" viewBox="0 0 16 16" fill="none" xmlns="http://www.w3.org/2000/svg">
<path d="M15.0782 15.957C15.5634 15.957 15.9569 15.5635 15.9569 15.0782V0.914836C15.9569 0.429461 15.5635 0.0361328 15.0782 0.0361328H0.914836C0.429461 0.0361328 0.0361328 0.429461 0.0361328 0.914836V15.0782C0.0361328 15.5635 0.429399 15.957 0.914836 15.957H15.0782Z" fill="white"/>
<path d="M11.0209 15.9567V9.79129H13.0903L13.4002 7.38851H11.0209V5.85448C11.0209 5.15882 11.2141 4.68475 12.2116 4.68475L13.484 4.6842V2.53513C13.2639 2.50585 12.5086 2.44043 11.6299 2.44043C9.7955 2.44043 8.53959 3.56018 8.53959 5.61652V7.38851H6.46484V9.79129H8.53959V15.9567H11.0209Z" fill="#0062FF"/>
</svg>
