<svg width="32" height="27" viewBox="0 0 32 27" fill="none" xmlns="http://www.w3.org/2000/svg">
<path d="M28.8295 2.97066C25.458 -0.399921 19.9732 -0.399921 16.6027 2.97066L15.8198 3.75309L15.0374 2.97066C11.6668 -0.400377 6.18159 -0.400377 2.81101 2.97066C-0.49114 6.27281 -0.512582 11.5071 2.76128 15.1464C5.74727 18.4645 14.5538 25.6331 14.9274 25.9365C15.1811 26.1427 15.4863 26.2431 15.7897 26.2431C15.7997 26.2431 15.8097 26.2431 15.8193 26.2427C16.1332 26.2573 16.4494 26.1496 16.7112 25.9365C17.0849 25.6331 25.8923 18.4645 28.8792 15.1459C32.1526 11.5071 32.1312 6.27281 28.8295 2.97066ZM26.8444 13.3151C24.5163 15.9014 18.1169 21.2356 15.8193 23.1285C13.5218 21.2361 7.1237 15.9023 4.79604 13.3155C2.51218 10.7771 2.49074 7.16199 4.74631 4.90642C5.89828 3.75491 7.41112 3.1787 8.92396 3.1787C10.4368 3.1787 11.9496 3.75446 13.1016 4.90642L14.8225 6.6273C15.0273 6.83214 15.2855 6.95441 15.5565 6.9973C15.9963 7.09174 16.4736 6.96901 16.8157 6.62775L18.5375 4.90642C20.8419 2.60295 24.5902 2.6034 26.8933 4.90642C29.1488 7.16199 29.1274 10.7771 26.8444 13.3151Z" fill="#3C4F76"/>
</svg>
