<svg width="16" height="16" viewBox="0 0 16 16" fill="none" xmlns="http://www.w3.org/2000/svg">
<path fill-rule="evenodd" clip-rule="evenodd" d="M5.04826 2.525L5.55232 1.01283C5.65441 0.706573 5.94101 0.5 6.26383 0.5H10.3138C10.6367 0.5 10.9233 0.706573 11.0253 1.01283L11.5294 2.525H15.0388C15.453 2.525 15.7888 2.86079 15.7888 3.275C15.7888 3.68921 15.453 4.025 15.0388 4.025H14.396L13.8456 13.3821C13.7756 14.5714 12.7908 15.5 11.5995 15.5H4.97819C3.78687 15.5 2.80203 14.5714 2.73207 13.3821L2.18165 4.025H1.55078C1.13657 4.025 0.800781 3.68921 0.800781 3.275C0.800781 2.86079 1.13657 2.525 1.55078 2.525H5.04826ZM6.6294 2.525H9.94826L9.77326 2H6.8044L6.6294 2.525ZM12.8934 4.025H3.68425L4.22949 13.294C4.2528 13.6905 4.58108 14 4.97819 14H11.5995C11.9966 14 12.3249 13.6905 12.3482 13.294L12.8934 4.025ZM9.56529 5.92822C9.59113 5.51481 9.94721 5.20062 10.3606 5.22646C10.774 5.2523 11.0882 5.60838 11.0624 6.02178L10.7249 11.4218C10.699 11.8352 10.343 12.1494 9.92955 12.1235C9.51614 12.0977 9.20196 11.7416 9.22779 11.3282L9.56529 5.92822ZM7.34987 11.3282C7.37571 11.7416 7.06152 12.0977 6.64812 12.1235C6.23471 12.1494 5.87863 11.8352 5.85279 11.4218L5.51529 6.02178C5.48946 5.60838 5.80364 5.2523 6.21705 5.22646C6.63046 5.20062 6.98654 5.51481 7.01237 5.92822L7.34987 11.3282Z" fill="#92929D"/>
</svg>
