<svg width="15" height="16" viewBox="0 0 15 16" fill="none" xmlns="http://www.w3.org/2000/svg">
<path fill-rule="evenodd" clip-rule="evenodd" d="M12.8391 4.93042C12.8391 4.51724 13.1741 4.1823 13.5873 4.1823C14.0004 4.1823 14.3354 4.51724 14.3354 4.93042V12.3672C14.3354 14.0974 12.9328 15.5 11.2026 15.5H3.25385C1.52368 15.5 0.121094 14.0974 0.121094 12.3672V4.41847C0.121094 2.6883 1.52368 1.28572 3.25385 1.28572H10.4545C10.8677 1.28572 11.2026 1.62066 11.2026 2.03384C11.2026 2.44701 10.8677 2.78196 10.4545 2.78196H3.25385C2.35003 2.78196 1.61733 3.51465 1.61733 4.41847V12.3672C1.61733 13.2711 2.35003 14.0038 3.25385 14.0038H11.2026C12.1064 14.0038 12.8391 13.2711 12.8391 12.3672V4.93042ZM13.4993 0.732212C13.7842 0.432997 14.2578 0.421417 14.557 0.706346C14.8562 0.991275 14.8678 1.46482 14.5828 1.76403L7.41997 9.28603C7.13504 9.58524 6.6615 9.59682 6.36228 9.31189C6.06307 9.02696 6.05149 8.55342 6.33642 8.2542L13.4993 0.732212Z" fill="#92929D"/>
</svg>
