<svg width="17" height="18" viewBox="0 0 17 18" fill="none" xmlns="http://www.w3.org/2000/svg">
<path d="M8.31055 0.689453C3.72079 0.689453 0 4.41024 0 9C0 13.5898 3.72079 17.3105 8.31055 17.3105C12.9006 17.3105 16.6211 13.5898 16.6211 9C16.6211 4.41024 12.9006 0.689453 8.31055 0.689453ZM8.31055 15.6484C4.64459 15.6484 1.66211 12.666 1.66211 9C1.66211 5.33404 4.64459 2.35156 8.31055 2.35156C11.9765 2.35156 14.959 5.33404 14.959 9C14.959 12.666 11.9765 15.6484 8.31055 15.6484Z" fill="#92929D"/>
<path d="M11.3328 8.41852L7.30248 6.09156C6.74833 5.77177 6.29492 6.03339 6.29492 6.6733V11.3272C6.29492 11.9671 6.74833 12.2291 7.30248 11.9089L11.3328 9.58199C11.8869 9.2622 11.8869 8.73831 11.3328 8.41852Z" fill="#92929D"/>
</svg>
