<svg width="24" height="24" viewBox="0 0 24 24" fill="none" xmlns="http://www.w3.org/2000/svg">
<path d="M3.01275 3.00558C7.25266 -1.08292 13.5625 -0.919967 17.4867 3.00558C21.2392 6.75939 21.4687 12.7029 18.1749 16.7245L24 22.5521L22.5526 24L16.727 18.173C12.7068 21.4678 6.76527 21.2383 3.01275 17.4845C-0.91146 13.5589 -1.09598 6.96758 3.01275 3.00558ZM16.0393 4.45347C12.8418 1.25488 7.65764 1.25488 4.46014 4.45347C1.26264 7.65206 1.26264 12.838 4.46014 16.0366C7.65764 19.2352 12.8418 19.2352 16.0393 16.0366C19.2368 12.838 19.2368 7.65206 16.0393 4.45347Z" fill="white"/>
</svg>
