<svg width="25" height="28" viewBox="0 0 25 28" fill="none" xmlns="http://www.w3.org/2000/svg">
<path d="M20.0703 17.6972C19.2949 17.699 18.531 17.8842 17.8409 18.2376C17.1508 18.591 16.554 19.1026 16.0994 19.7307L9.91867 15.6107C10.3082 14.5721 10.3082 13.4276 9.91867 12.3891L16.0994 8.26901C16.7931 9.20953 17.7995 9.87183 18.9377 10.1369C20.0759 10.402 21.2714 10.2526 22.3093 9.71535C23.3472 9.17815 24.1595 8.28843 24.6003 7.20606C25.0411 6.12368 25.0815 4.91959 24.7142 3.81012C24.3469 2.70065 23.596 1.75852 22.5964 1.153C21.5968 0.547487 20.414 0.318271 19.2606 0.506538C18.1072 0.694806 17.0587 1.28822 16.3035 2.18015C15.5483 3.07209 15.136 4.20409 15.1405 5.37277C15.1485 5.55235 15.1666 5.73134 15.1948 5.90889L8.55066 10.3383C7.8426 9.69999 6.96466 9.28068 6.02318 9.13114C5.08169 8.98159 4.11704 9.10823 3.24605 9.49571C2.37506 9.88319 1.6351 10.5149 1.11578 11.3143C0.596464 12.1137 0.320068 13.0466 0.320068 13.9999C0.320068 14.9532 0.596464 15.886 1.11578 16.6854C1.6351 17.4848 2.37506 18.1165 3.24605 18.504C4.11704 18.8915 5.08169 19.0181 6.02318 18.8686C6.96466 18.7191 7.8426 18.2997 8.55066 17.6615L15.1948 22.0909C15.1666 22.2684 15.1485 22.4474 15.1405 22.627C15.1405 23.602 15.4297 24.5551 15.9713 25.3658C16.513 26.1765 17.283 26.8084 18.1838 27.1815C19.0846 27.5546 20.0758 27.6522 21.032 27.462C21.9883 27.2718 22.8667 26.8023 23.5562 26.1128C24.2456 25.4234 24.7151 24.545 24.9053 23.5887C25.0956 22.6324 24.9979 21.6412 24.6248 20.7404C24.2517 19.8396 23.6198 19.0697 22.8091 18.528C21.9984 17.9863 21.0453 17.6972 20.0703 17.6972ZM20.0703 2.90789C20.5578 2.90789 21.0344 3.05245 21.4397 3.3233C21.8451 3.59414 22.161 3.9791 22.3476 4.4295C22.5341 4.8799 22.5829 5.37551 22.4878 5.85365C22.3927 6.33179 22.158 6.77099 21.8132 7.11571C21.4685 7.46043 21.0293 7.69519 20.5512 7.7903C20.073 7.8854 19.5774 7.83659 19.127 7.65003C18.6766 7.46347 18.2917 7.14754 18.0208 6.74219C17.75 6.33684 17.6054 5.86028 17.6054 5.37277C17.6054 4.71905 17.8651 4.09209 18.3274 3.62984C18.7896 3.16758 19.4166 2.90789 20.0703 2.90789ZM5.28099 16.4648C4.79348 16.4648 4.31692 16.3202 3.91157 16.0493C3.50622 15.7785 3.19029 15.3935 3.00373 14.9431C2.81717 14.4927 2.76836 13.9971 2.86347 13.519C2.95857 13.0409 3.19333 12.6017 3.53805 12.2569C3.88277 11.9122 4.32197 11.6775 4.80011 11.5823C5.27825 11.4872 5.77386 11.5361 6.22426 11.7226C6.67466 11.9092 7.05962 12.2251 7.33046 12.6305C7.60131 13.0358 7.74587 13.5124 7.74587 13.9999C7.74587 14.6536 7.48618 15.2806 7.02392 15.7428C6.56167 16.2051 5.93472 16.4648 5.28099 16.4648ZM20.0703 25.0918C19.5828 25.0918 19.1062 24.9473 18.7009 24.6764C18.2955 24.4056 17.9796 24.0206 17.793 23.5702C17.6065 23.1198 17.5577 22.6242 17.6528 22.1461C17.7479 21.6679 17.9826 21.2287 18.3274 20.884C18.6721 20.5393 19.1113 20.3046 19.5894 20.2094C20.0676 20.1143 20.5632 20.1631 21.0136 20.3497C21.464 20.5363 21.8489 20.8522 22.1198 21.2575C22.3906 21.6629 22.5352 22.1395 22.5352 22.627C22.5352 23.2807 22.2755 23.9076 21.8132 24.3699C21.351 24.8322 20.724 25.0918 20.0703 25.0918Z" fill="#3C4F76"/>
</svg>
