<svg width="4" height="16" viewBox="0 0 4 16" fill="none" xmlns="http://www.w3.org/2000/svg">
<path d="M0.300781 7.99859C0.300781 8.99926 1.11511 9.81359 2.11578 9.81359C3.11645 9.81359 3.93078 8.99926 3.93078 7.99859C3.93078 6.99792 3.11645 6.18359 2.11578 6.18359C1.11511 6.18359 0.300781 6.99792 0.300781 7.99859Z" fill="#92929D"/>
<path d="M0.300781 14.0513C0.300781 15.052 1.11511 15.8663 2.11578 15.8663C3.11645 15.8663 3.93078 15.052 3.93078 14.0513C3.93078 13.0507 3.11645 12.2363 2.11578 12.2363C1.11511 12.2363 0.300781 13.0507 0.300781 14.0513Z" fill="#92929D"/>
<path d="M0.300781 1.94977C0.300781 2.95044 1.11511 3.76477 2.11578 3.76477C3.11645 3.76477 3.93078 2.95044 3.93078 1.94977C3.93078 0.949096 3.11645 0.134766 2.11578 0.134766C1.11511 0.134766 0.300781 0.949096 0.300781 1.94977Z" fill="#92929D"/>
</svg>
