<svg width="24" height="26" viewBox="0 0 24 26" fill="none" xmlns="http://www.w3.org/2000/svg">
<path d="M7.80758 25.8337C5.96062 25.8337 3.99717 25.0391 2.67803 23.8308C1.41432 22.6732 0.62862 20.8407 0.576401 18.9311C0.536232 17.4729 0.950774 16.1899 1.71318 15.4107L15.3424 1.7806C17.1283 -0.00369111 20.0333 -0.00369111 21.8176 1.7806C22.6724 2.6354 23.2147 3.81957 23.3063 5.02785C23.4035 6.33574 22.9817 7.53116 22.1173 8.39559L9.81602 20.6961C8.69852 21.8144 6.88129 21.8136 5.76379 20.6961C4.6463 19.5778 4.6463 17.7605 5.76379 16.643L13.5501 8.85593C13.8642 8.54181 14.372 8.54181 14.6861 8.85593C15.0002 9.17005 15.0002 9.67778 14.6861 9.9919L6.89977 17.779C6.40971 18.2699 6.40971 19.0684 6.89977 19.5601C7.39063 20.051 8.18838 20.0502 8.68004 19.5601L20.9797 7.25962C22.1711 6.06822 21.7783 4.01399 20.6809 2.91658C19.5216 1.75891 17.6361 1.75891 16.4784 2.91658L2.85558 16.541C2.4089 16.9973 2.15503 17.877 2.18235 18.8877C2.22252 20.349 2.82906 21.7895 3.76419 22.6467C5.3597 24.108 8.30085 24.8222 9.87948 23.6067L19.7417 13.7453C20.0558 13.4311 20.5636 13.4311 20.8777 13.7453C21.1918 14.0594 21.1918 14.5671 20.8777 14.8812L10.9809 24.7772C10.96 24.7981 10.9367 24.819 10.9134 24.8375C10.0418 25.5308 8.94676 25.8337 7.80758 25.8337Z" fill="#3C4F76"/>
</svg>
