<svg width="14" height="14" viewBox="0 0 14 14" fill="none" xmlns="http://www.w3.org/2000/svg">
<path d="M10.7683 8.89929C10.3699 8.90022 9.97744 8.99536 9.62287 9.17694C9.2683 9.35851 8.96171 9.62138 8.72812 9.94407L5.55263 7.82729C5.75274 7.2937 5.75274 6.70569 5.55263 6.1721L8.72812 4.05532C9.08455 4.53853 9.60161 4.87881 10.1864 5.01501C10.7712 5.15121 11.3854 5.07442 11.9186 4.79841C12.4519 4.52241 12.8692 4.0653 13.0957 3.5092C13.3222 2.9531 13.3429 2.33446 13.1542 1.76444C12.9655 1.19442 12.5797 0.71038 12.0661 0.39928C11.5526 0.0881796 10.9449 -0.029586 10.3523 0.0671414C9.75969 0.163869 9.221 0.468749 8.83301 0.927005C8.44502 1.38526 8.23316 1.96686 8.23549 2.5673C8.2396 2.65956 8.2489 2.75152 8.26335 2.84274L4.84978 5.11846C4.48599 4.79052 4.03493 4.57509 3.55122 4.49826C3.0675 4.42142 2.57189 4.48649 2.12439 4.68557C1.6769 4.88464 1.29673 5.2092 1.02991 5.61992C0.763099 6.03064 0.621094 6.50992 0.621094 6.9997C0.621094 7.48947 0.763099 7.96875 1.02991 8.37947C1.29673 8.79019 1.6769 9.11475 2.12439 9.31383C2.57189 9.5129 3.0675 9.57797 3.55122 9.50114C4.03493 9.4243 4.48599 9.20887 4.84978 8.88093L8.26335 11.1567C8.2489 11.2479 8.2396 11.3398 8.23549 11.4321C8.23549 11.933 8.38404 12.4227 8.66235 12.8392C8.94066 13.2558 9.33622 13.5804 9.79903 13.7721C10.2618 13.9638 10.7711 14.014 11.2624 13.9162C11.7537 13.8185 12.205 13.5773 12.5593 13.2231C12.9135 12.8688 13.1547 12.4175 13.2524 11.9262C13.3502 11.4349 13.3 10.9256 13.1083 10.4628C12.9166 10 12.592 9.60446 12.1754 9.32615C11.7589 9.04784 11.2692 8.89929 10.7683 8.89929ZM10.7683 1.3009C11.0188 1.3009 11.2636 1.37517 11.4719 1.51433C11.6801 1.65348 11.8424 1.85126 11.9383 2.08267C12.0341 2.31407 12.0592 2.5687 12.0104 2.81436C11.9615 3.06002 11.8409 3.28567 11.6638 3.46278C11.4867 3.63989 11.261 3.7605 11.0154 3.80936C10.7697 3.85823 10.5151 3.83315 10.2837 3.7373C10.0523 3.64145 9.85447 3.47913 9.71532 3.27087C9.57617 3.06261 9.50189 2.81777 9.50189 2.5673C9.50189 2.23143 9.63532 1.90931 9.87281 1.67182C10.1103 1.43432 10.4324 1.3009 10.7683 1.3009ZM3.1699 8.2661C2.91943 8.2661 2.67458 8.19182 2.46632 8.05267C2.25806 7.91351 2.09575 7.71573 1.9999 7.48433C1.90405 7.25292 1.87897 6.99829 1.92783 6.75263C1.9767 6.50698 2.09731 6.28133 2.27442 6.10422C2.45153 5.92711 2.67718 5.80649 2.92283 5.75763C3.16849 5.70877 3.42312 5.73384 3.65453 5.8297C3.88593 5.92555 4.08372 6.08786 4.22287 6.29612C4.36202 6.50438 4.4363 6.74923 4.4363 6.9997C4.4363 7.33557 4.30287 7.65768 4.06538 7.89517C3.82788 8.13267 3.50577 8.2661 3.1699 8.2661ZM10.7683 12.6985C10.5178 12.6985 10.273 12.6242 10.0647 12.4851C9.85646 12.3459 9.69414 12.1481 9.59829 11.9167C9.50244 11.6853 9.47736 11.4307 9.52623 11.185C9.57509 10.9394 9.69571 10.7137 9.87281 10.5366C10.0499 10.3595 10.2756 10.2389 10.5212 10.19C10.7669 10.1412 11.0215 10.1662 11.2529 10.2621C11.4843 10.3579 11.6821 10.5203 11.8213 10.7285C11.9604 10.9368 12.0347 11.1816 12.0347 11.4321C12.0347 11.768 11.9013 12.0901 11.6638 12.3276C11.4263 12.5651 11.1042 12.6985 10.7683 12.6985Z" fill="#92929D"/>
</svg>
