<svg width="18" height="13" viewBox="0 0 18 13" fill="none" xmlns="http://www.w3.org/2000/svg">
<path d="M17.5887 2.02963C18 3.4775 18 6.5 18 6.5C18 6.5 18 9.5225 17.5887 10.9704C17.3601 11.7707 16.6914 12.4004 15.8445 12.6132C14.3064 13 9 13 9 13C9 13 3.6963 13 2.1555 12.6132C1.305 12.3971 0.6372 11.7683 0.4113 10.9704C2.68221e-08 9.5225 0 6.5 0 6.5C0 6.5 2.68221e-08 3.4775 0.4113 2.02963C0.6399 1.22931 1.3086 0.599625 2.1555 0.38675C3.6963 -1.45286e-07 9 0 9 0C9 0 14.3064 -1.45286e-07 15.8445 0.38675C16.695 0.602875 17.3628 1.23175 17.5887 2.02963ZM7.2 9.34375L12.6 6.5L7.2 3.65625V9.34375Z" fill="white"/>
</svg>
